<svg id="visual" viewBox="0 0 960 300" width="960" height="300" xmlns="http://www.w3.org/2000/svg" xmlns:xlink="http://www.w3.org/1999/xlink" version="1.1"><rect x="0" y="0" width="960" height="300" fill="#002244"></rect><path d="M0 213L20 219.2C40 225.3 80 237.7 120 235C160 232.3 200 214.7 240 210.7C280 206.7 320 216.3 360 217.5C400 218.7 440 211.3 480 202.3C520 193.3 560 182.7 600 184.7C640 186.7 680 201.3 720 209.8C760 218.3 800 220.7 840 219.3C880 218 920 213 940 210.5L960 208L960 0L940 0C920 0 880 0 840 0C800 0 760 0 720 0C680 0 640 0 600 0C560 0 520 0 480 0C440 0 400 0 360 0C320 0 280 0 240 0C200 0 160 0 120 0C80 0 40 0 20 0L0 0Z" fill="#0080ff"></path><path d="M0 199L20 194.3C40 189.7 80 180.3 120 172.8C160 165.3 200 159.7 240 166.5C280 173.3 320 192.7 360 189.5C400 186.3 440 160.7 480 152.3C520 144 560 153 600 164.7C640 176.3 680 190.7 720 193C760 195.3 800 185.7 840 180.2C880 174.7 920 173.3 940 172.7L960 172L960 0L940 0C920 0 880 0 840 0C800 0 760 0 720 0C680 0 640 0 600 0C560 0 520 0 480 0C440 0 400 0 360 0C320 0 280 0 240 0C200 0 160 0 120 0C80 0 40 0 20 0L0 0Z" fill="#0075ff"></path><path d="M0 123L20 120.2C40 117.3 80 111.7 120 114.3C160 117 200 128 240 137.7C280 147.3 320 155.7 360 158.5C400 161.3 440 158.7 480 150.7C520 142.7 560 129.3 600 121C640 112.7 680 109.3 720 115.2C760 121 800 136 840 147.7C880 159.3 920 167.7 940 171.8L960 176L960 0L940 0C920 0 880 0 840 0C800 0 760 0 720 0C680 0 640 0 600 0C560 0 520 0 480 0C440 0 400 0 360 0C320 0 280 0 240 0C200 0 160 0 120 0C80 0 40 0 20 0L0 0Z" fill="#006aff"></path><path d="M0 97L20 100.2C40 103.3 80 109.7 120 110.7C160 111.7 200 107.3 240 109.2C280 111 320 119 360 120.7C400 122.3 440 117.7 480 116.8C520 116 560 119 600 115.7C640 112.3 680 102.7 720 99.8C760 97 800 101 840 108.3C880 115.7 920 126.3 940 131.7L960 137L960 0L940 0C920 0 880 0 840 0C800 0 760 0 720 0C680 0 640 0 600 0C560 0 520 0 480 0C440 0 400 0 360 0C320 0 280 0 240 0C200 0 160 0 120 0C80 0 40 0 20 0L0 0Z" fill="#005eff"></path><path d="M0 48L20 48.5C40 49 80 50 120 57C160 64 200 77 240 81.5C280 86 320 82 360 76.7C400 71.3 440 64.7 480 61.5C520 58.3 560 58.7 600 64.3C640 70 680 81 720 80.7C760 80.3 800 68.7 840 61.7C880 54.7 920 52.3 940 51.2L960 50L960 0L940 0C920 0 880 0 840 0C800 0 760 0 720 0C680 0 640 0 600 0C560 0 520 0 480 0C440 0 400 0 360 0C320 0 280 0 240 0C200 0 160 0 120 0C80 0 40 0 20 0L0 0Z" fill="#0050ff"></path><path d="M0 42L20 41.7C40 41.3 80 40.7 120 41.2C160 41.7 200 43.3 240 46.8C280 50.3 320 55.7 360 56.2C400 56.7 440 52.3 480 47.3C520 42.3 560 36.7 600 35.2C640 33.7 680 36.3 720 37.2C760 38 800 37 840 39.3C880 41.7 920 47.3 940 50.2L960 53L960 0L940 0C920 0 880 0 840 0C800 0 760 0 720 0C680 0 640 0 600 0C560 0 520 0 480 0C440 0 400 0 360 0C320 0 280 0 240 0C200 0 160 0 120 0C80 0 40 0 20 0L0 0Z" fill="#0040ff"></path></svg>