<svg id="visual" viewBox="0 0 960 300" width="960" height="300" xmlns="http://www.w3.org/2000/svg"
    xmlns:xlink="http://www.w3.org/1999/xlink" version="1.1">
    <rect x="0" y="0" width="960" height="300" fill="#fff"></rect>
    <g>
        <path
            d="M0 142L20 154.5C40 167 80 192 120 202.7C160 213.3 200 209.7 240 197.7C280 185.7 320 165.3 360 165.5C400 165.7 440 186.3 480 196.8C520 207.3 560 207.7 600 208C640 208.3 680 208.7 720 211C760 213.3 800 217.7 840 212.8C880 208 920 194 940 187L960 180L960 0L940 0C920 0 880 0 840 0C800 0 760 0 720 0C680 0 640 0 600 0C560 0 520 0 480 0C440 0 400 0 360 0C320 0 280 0 240 0C200 0 160 0 120 0C80 0 40 0 20 0L0 0Z"
            fill="#0080ff"></path>
        <path
            d="M0 145L20 152.3C40 159.7 80 174.3 120 177.7C160 181 200 173 240 173.3C280 173.7 320 182.3 360 186.7C400 191 440 191 480 184.7C520 178.3 560 165.7 600 155.3C640 145 680 137 720 140.2C760 143.3 800 157.7 840 167.3C880 177 920 182 940 184.5L960 187L960 0L940 0C920 0 880 0 840 0C800 0 760 0 720 0C680 0 640 0 600 0C560 0 520 0 480 0C440 0 400 0 360 0C320 0 280 0 240 0C200 0 160 0 120 0C80 0 40 0 20 0L0 0Z"
            fill="#0075ff"></path>
        <path
            d="M0 113L20 111.8C40 110.7 80 108.3 120 109.3C160 110.3 200 114.7 240 119.7C280 124.7 320 130.3 360 132.3C400 134.3 440 132.7 480 135.3C520 138 560 145 600 148.8C640 152.7 680 153.3 720 144.2C760 135 800 116 840 109.7C880 103.3 920 109.7 940 112.8L960 116L960 0L940 0C920 0 880 0 840 0C800 0 760 0 720 0C680 0 640 0 600 0C560 0 520 0 480 0C440 0 400 0 360 0C320 0 280 0 240 0C200 0 160 0 120 0C80 0 40 0 20 0L0 0Z"
            fill="#006aff"></path>
        <path
            d="M0 92L20 95.2C40 98.3 80 104.7 120 104.2C160 103.7 200 96.3 240 96C280 95.7 320 102.3 360 101C400 99.7 440 90.3 480 84.8C520 79.3 560 77.7 600 75.8C640 74 680 72 720 75.5C760 79 800 88 840 88.8C880 89.7 920 82.3 940 78.7L960 75L960 0L940 0C920 0 880 0 840 0C800 0 760 0 720 0C680 0 640 0 600 0C560 0 520 0 480 0C440 0 400 0 360 0C320 0 280 0 240 0C200 0 160 0 120 0C80 0 40 0 20 0L0 0Z"
            fill="#005eff"></path>
        <path
            d="M0 76L20 74.3C40 72.7 80 69.3 120 65.7C160 62 200 58 240 58C280 58 320 62 360 66.3C400 70.7 440 75.3 480 72.7C520 70 560 60 600 60.5C640 61 680 72 720 76.2C760 80.3 800 77.7 840 71.5C880 65.3 920 55.7 940 50.8L960 46L960 0L940 0C920 0 880 0 840 0C800 0 760 0 720 0C680 0 640 0 600 0C560 0 520 0 480 0C440 0 400 0 360 0C320 0 280 0 240 0C200 0 160 0 120 0C80 0 40 0 20 0L0 0Z"
            fill="#0050ff"></path>
        <path
            d="M0 47L20 43C40 39 80 31 120 28C160 25 200 27 240 26.8C280 26.7 320 24.3 360 23.8C400 23.3 440 24.7 480 28.3C520 32 560 38 600 39.8C640 41.7 680 39.3 720 40.8C760 42.3 800 47.7 840 49.3C880 51 920 49 940 48L960 47L960 0L940 0C920 0 880 0 840 0C800 0 760 0 720 0C680 0 640 0 600 0C560 0 520 0 480 0C440 0 400 0 360 0C320 0 280 0 240 0C200 0 160 0 120 0C80 0 40 0 20 0L0 0Z"
            fill="#0040ff"></path>
    </g>
</svg>